HIERARCHY
ROOT Hips
{
	OFFSET -3.958830 18.904000 13.208200
	CHANNELS 6 Xposition Yposition Zposition Zrotation Yrotation Xrotation 
	JOINT LHipJoint
	{
		OFFSET 0.000000 0.000000 0.000000
		CHANNELS 3 Zrotation Yrotation Xrotation
		JOINT LeftUpLeg
		{
			OFFSET 1.800000 -1.400000 0.085000
			CHANNELS 3 Zrotation Yrotation Xrotation
			JOINT LeftLeg
			{
				OFFSET 2.215000 -6.000000 0.000000
				CHANNELS 3 Zrotation Yrotation Xrotation
				JOINT LeftFoot
				{
					OFFSET 2.500000 -6.900000 0.000000
					CHANNELS 3 Zrotation Yrotation Xrotation
					JOINT LeftToeBase
					{
						OFFSET 0.200000 -0.500000 1.950000
						CHANNELS 3 Zrotation Yrotation Xrotation
						End Site
						{
							OFFSET 0.000000 0.000000 0.000000
						}
					}
				}
			}
		}
	}
	JOINT RHipJoint
	{
		OFFSET 0.000000 0.000000 0.000000
		CHANNELS 3 Zrotation Yrotation Xrotation
		JOINT RightUpLeg
		{
			OFFSET -1.800000 -1.400000 0.085000
			CHANNELS 3 Zrotation Yrotation Xrotation
			JOINT RightLeg
			{
				OFFSET -2.215000 -6.000000 0.000000
				CHANNELS 3 Zrotation Yrotation Xrotation
				JOINT RightFoot
				{
					OFFSET -2.500000 -6.900000 0.000000
					CHANNELS 3 Zrotation Yrotation Xrotation
					JOINT RightToeBase
					{
						OFFSET -0.200000 -0.500000 1.950000
						CHANNELS 3 Zrotation Yrotation Xrotation
						End Site
						{
							OFFSET 0.000000 0.000000 0.000000
						}
					}
				}
			}
		}
	}
	JOINT LowerBack
	{
		OFFSET 0.000000 0.000000 0.000000
		CHANNELS 3 Zrotation Yrotation Xrotation
		JOINT Spine
		{
			OFFSET -0.087000 1.940000 -0.288900
			CHANNELS 3 Zrotation Yrotation Xrotation
			JOINT Spine1
			{
				OFFSET 0.000000 1.950000 0.060000
				CHANNELS 3 Zrotation Yrotation Xrotation
				JOINT Neck
				{
					OFFSET 0.000000 0.000000 0.000000
					CHANNELS 3 Zrotation Yrotation Xrotation
					JOINT Neck1
					{
						OFFSET 0.000000 1.600000 0.340000
						CHANNELS 3 Zrotation Yrotation Xrotation
						JOINT Head
						{
							OFFSET 0.000000 1.667000 -0.240000
							CHANNELS 3 Zrotation Yrotation Xrotation
							End Site
							{
								OFFSET 0.000000 0.000000 0.000000
							}
						}
					}
				}
				JOINT LeftShoulder
				{
					OFFSET 0.000000 0.000000 0.000000
					CHANNELS 3 Zrotation Yrotation Xrotation
					JOINT LeftArm
					{
						OFFSET 2.700000 1.550000 -0.730000
						CHANNELS 3 Zrotation Yrotation Xrotation
						JOINT LeftForeArm
						{
							OFFSET 5.450000 0.000000 0.000000
							CHANNELS 3 Zrotation Yrotation Xrotation
							JOINT LeftHand
							{
								OFFSET 3.450000 0.000000 0.000000
								CHANNELS 3 Zrotation Yrotation Xrotation
								JOINT LeftHandIndex1
								{
									OFFSET 0.750000 0.000000 0.000000
									CHANNELS 3 Zrotation Yrotation Xrotation
									End Site
									{
										OFFSET 0.000000 0.000000 0.000000
									}
								}
							}
						}
					}
				}
				JOINT RightShoulder
				{
					OFFSET 0.000000 0.000000 0.000000
					CHANNELS 3 Zrotation Yrotation Xrotation
					JOINT RightArm
					{
						OFFSET -2.700000 1.550000 -0.730000
						CHANNELS 3 Zrotation Yrotation Xrotation
						JOINT RightForeArm
						{
							OFFSET -5.450000 0.000000 0.000000
							CHANNELS 3 Zrotation Yrotation Xrotation
							JOINT RightHand
							{
								OFFSET -3.450000 0.000000 0.000000
								CHANNELS 3 Zrotation Yrotation Xrotation
								JOINT RightHandIndex1
								{
									OFFSET -0.750000 0.000000 0.000000
									CHANNELS 3 Zrotation Yrotation Xrotation
									End Site
									{
										OFFSET 0.000000 0.000000 0.000000
									}
								}
							}
						}
					}
				}
			}
		}
	}
}
MOTION
Frames: 12
Frame Time: 0.016667
0.348890 16.938220 -4.663440 -7.868201 -27.835856 5.213876 -15.230671 15.405594 2.789236 8.664332 -2.654633 -13.063737 4.738679 5.066720 29.083593 0.492160 4.601162 2.972003 0.178170 -0.233980 0.405100 17.783829 -9.927321 4.033358 -7.234677 5.729192 -32.457533 13.796839 -9.736234 30.187029 -0.355949 -4.280161 2.952998 -0.472340 -0.180830 0.061200 -1.959681 -5.696563 -8.642632 4.479499 -5.484446 7.741265 13.340023 -1.763993 -25.358023 2.207911 -4.180434 -15.262087 -19.434473 16.516673 54.583369 3.324960 12.636430 20.985050 7.617829 17.980098 4.083574 -55.688263 7.164852 -4.108292 16.185680 -11.879203 -0.875296 -3.452066 2.873950 0.523720 -0.192700 0.196330 0.079610 -6.376040 -16.778865 8.018190 73.924004 -19.088695 -21.872827 -34.858421 68.069075 -15.140927 1.995894 -1.240012 0.067950 -0.312280 -0.331400 -0.165980 
0.336340 16.908660 -4.654080 -8.022617 -28.253437 4.965157 -15.234911 15.391790 2.769209 9.182476 -2.588137 -13.011339 4.274458 5.497097 30.146831 0.526013 4.817529 2.895129 0.191610 -0.212410 0.408220 17.791542 -9.889904 4.038283 -7.241076 5.902644 -32.451544 13.903805 -9.997819 31.086455 -0.393911 -4.442754 2.900252 -0.459790 -0.180400 0.058430 -1.966911 -5.718946 -8.640171 4.721962 -5.647509 7.915755 13.359187 -1.843794 -25.141163 2.163458 -4.423276 -15.126455 -19.749559 16.882689 54.462712 3.183760 13.056280 20.688460 6.696350 17.824985 4.129746 -55.599475 8.336181 -4.635928 18.315330 -12.799320 -1.002345 -3.448734 2.874914 0.525330 -0.194610 0.203410 0.091540 -5.507581 -16.241075 7.755190 73.217786 -18.024879 -21.460396 -36.936808 68.193177 -16.473240 1.982631 -1.186393 0.068210 -0.302810 -0.341950 -0.161790 
0.318400 16.862830 -4.639340 -8.542690 -28.747939 4.712335 -15.216054 15.405351 2.757653 10.040590 -2.559797 -13.102877 3.865656 6.074980 31.940070 0.557078 5.169900 2.757245 0.213370 -0.190140 0.427340 17.822149 -9.784078 4.089956 -7.138305 6.336876 -32.725574 14.076449 -10.531924 32.930919 -0.472997 -4.741899 2.787905 -0.443390 -0.194970 0.047930 -2.057245 -5.879136 -8.672098 6.183757 -6.133994 8.705010 12.380284 -1.943967 -25.944470 2.289361 -4.777972 -15.182446 -20.589223 18.082095 55.073896 3.665520 13.590150 20.006500 5.293595 17.978883 3.969698 -54.641681 10.273325 -5.055643 22.091133 -13.932234 -1.071990 -3.437797 2.856498 0.556360 -0.217260 0.219970 0.088940 -4.580173 -15.779926 7.458341 72.011966 -16.718254 -20.427007 -38.757938 68.999289 -17.722647 1.955166 -1.113513 0.059810 -0.285430 -0.344180 -0.172820 
0.283120 16.803760 -4.623570 -8.467846 -28.642597 4.147365 -15.229120 15.356916 2.741176 10.644854 -2.637859 -13.358824 3.782461 6.589158 34.248900 0.608278 5.582546 2.602761 0.221330 -0.171970 0.418390 17.831712 -9.701236 4.128186 -7.562611 6.583687 -33.121805 14.462219 -11.302419 34.989866 -0.558737 -5.163154 2.645357 -0.428110 -0.185460 0.041150 -2.075626 -5.922998 -8.692248 6.148890 -6.933340 9.200436 12.661516 -2.380083 -26.536896 2.055056 -5.199400 -14.991734 -21.331109 19.318647 55.059585 4.340200 14.139550 19.807050 3.983941 17.981106 4.086567 -54.021715 12.453025 -5.443757 25.502618 -14.443652 -1.024924 -3.443161 2.844760 0.566180 -0.218620 0.221910 0.093970 -2.979262 -15.471104 6.754021 69.763274 -14.942015 -19.063289 -42.845469 70.150177 -20.371122 1.887311 -0.976913 0.052670 -0.265850 -0.337710 -0.171830 
0.240750 16.746470 -4.605180 -8.311020 -28.019911 3.788649 -15.252322 15.304993 2.746113 11.070603 -2.844555 -13.804718 4.150944 6.843936 36.432783 0.661915 5.933627 2.469464 0.224850 -0.179210 0.439200 17.820859 -9.666945 4.167726 -7.620004 6.803840 -33.580329 14.226999 -11.744404 36.837784 -0.625161 -5.459087 2.528732 -0.434410 -0.196740 0.047030 -2.036633 -5.875746 -8.756626 5.313445 -7.693996 9.581702 13.593678 -2.670810 -27.144952 1.901852 -5.323542 -15.203867 -21.218457 19.870081 55.620447 4.389290 14.848270 19.561420 4.421752 17.746469 4.519923 -54.498900 13.970027 -5.742612 26.924725 -14.060379 -0.766259 -3.453588 2.842258 0.581080 -0.230370 0.231620 0.079490 -3.246056 -15.121679 6.404134 68.563242 -13.097034 -17.614727 -45.752853 70.027428 -21.658514 1.872838 -0.892525 0.054130 -0.269670 -0.332030 -0.182140 
0.199780 16.694870 -4.579510 -8.371018 -27.488849 3.487452 -15.276927 15.284869 2.752175 11.690037 -2.991940 -14.080390 4.502131 7.083907 38.292472 0.685249 6.268496 2.342956 0.224130 -0.194300 0.451760 17.805132 -9.627850 4.198199 -7.269311 7.113564 -33.833020 13.652317 -12.029224 38.745053 -0.685756 -5.723401 2.437561 -0.436500 -0.205280 0.046220 -1.985574 -5.878345 -8.826806 4.879919 -8.300786 10.096361 14.516509 -2.602405 -27.657693 1.820632 -5.481151 -15.674924 -21.308926 20.345410 56.487057 3.871390 15.623640 18.791830 5.352678 17.150007 5.042872 -55.324837 15.152123 -6.131854 26.309652 -13.325622 -0.488851 -3.464703 2.812465 0.612810 -0.240270 0.236920 0.066110 -4.178685 -14.185482 6.439116 67.977423 -11.362760 -16.389198 -50.666197 69.378281 -23.891279 1.815344 -0.737776 0.038520 -0.258930 -0.316740 -0.201450 
0.164510 16.653440 -4.555390 -8.464712 -26.834708 3.152157 -15.310085 15.306354 2.742775 12.151824 -3.078465 -14.196976 5.123269 7.066961 39.574347 0.705002 6.469330 2.260188 0.242830 -0.174200 0.469100 17.781417 -9.579282 4.215794 -6.642794 7.469295 -33.965449 12.678951 -12.041712 40.601591 -0.745416 -5.916393 2.367006 -0.425790 -0.222890 0.050090 -1.913765 -5.963725 -8.861497 4.622953 -8.756659 10.649035 15.733943 -2.250210 -28.202515 1.556910 -5.819251 -16.039643 -22.502045 21.227058 57.317340 3.544290 15.925250 17.562290 6.040586 16.386284 5.526829 -56.089272 15.740896 -6.292664 25.326857 -11.003874 -0.009403 -3.480505 2.783599 0.634740 -0.258820 0.257090 0.058770 -4.380034 -13.040469 6.443563 66.478808 -10.218905 -15.297519 -56.683015 68.429267 -26.730293 1.751870 -0.553059 0.043490 -0.248250 -0.313320 -0.206860 
0.135120 16.607060 -4.527000 -8.334540 -25.935064 2.652689 -15.350737 15.314699 2.725766 12.219417 -3.168799 -14.218931 5.870225 6.909525 40.758797 0.717754 6.662396 2.203272 0.247670 -0.175870 0.473670 17.754882 -9.560365 4.194967 -6.332723 7.604200 -33.888380 11.787222 -12.067445 42.228185 -0.785192 -6.127564 2.303146 -0.416340 -0.205660 0.053020 -1.838125 -6.006736 -8.858028 4.115648 -8.921633 11.079615 17.202464 -1.821298 -28.107206 1.042101 -6.259392 -16.007416 -23.567947 21.654768 56.931330 2.894110 16.114240 16.633950 6.228838 15.302199 6.019508 -56.845922 15.726910 -6.498012 22.566642 -9.353254 0.098317 -3.503163 2.749864 0.639530 -0.249850 0.248280 0.060510 -3.595993 -11.580645 6.229277 64.528657 -9.130465 -13.728930 -65.891352 65.718445 -30.962327 1.698477 -0.349997 0.031480 -0.225740 -0.303650 -0.210130 
0.113360 16.566920 -4.481960 -8.061249 -24.364302 2.437666 -15.373610 15.328842 2.727997 11.786089 -3.376551 -14.519250 6.964380 6.369050 41.469312 0.713474 6.722167 2.201077 0.223200 -0.208550 0.454630 17.736168 -9.577637 4.160055 -6.402224 7.448105 -33.823183 11.159238 -12.167592 43.329167 -0.791675 -6.302173 2.252620 -0.419840 -0.172590 0.044180 -1.818375 -6.035935 -8.845086 4.011886 -8.987628 11.258889 18.015633 -1.469794 -28.287006 0.675549 -6.755393 -15.902925 -24.499889 21.505071 55.508555 2.189780 15.901890 16.390180 6.770237 14.958124 6.125145 -57.078273 15.104595 -6.395309 19.591184 -7.921910 0.159920 -3.534227 2.714008 0.625990 -0.230410 0.214580 0.056720 -3.446855 -10.803683 6.171389 62.851009 -8.890996 -12.241883 -72.763807 62.993710 -33.964222 1.732451 -0.305951 0.008600 -0.205050 -0.281980 -0.209580 
0.090680 16.531730 -4.432210 -7.443628 -22.771464 2.215656 -15.381540 15.304374 2.712725 10.907878 -3.517869 -14.656372 8.253470 5.630882 41.757893 0.726745 6.685655 2.245530 0.187300 -0.242030 0.413730 17.732056 -9.646364 4.132526 -6.865749 7.201505 -33.932380 10.565476 -12.283868 44.414499 -0.785578 -6.509586 2.200252 -0.426600 -0.121220 0.034940 -1.841396 -5.902511 -8.814049 3.546570 -8.767985 11.090917 18.848702 -1.209949 -28.080501 0.150408 -7.138570 -15.836238 -24.767531 20.913353 53.646087 1.814780 15.586160 17.363790 7.784417 14.450257 6.387610 -57.045145 14.349349 -6.415084 14.652340 -6.693225 0.059521 -3.555905 2.692266 0.581000 -0.191330 0.167330 0.066870 -3.499181 -10.090959 6.222864 61.503542 -9.144368 -11.192662 -78.058196 60.326771 -36.433833 1.827866 -0.380590 -0.008440 -0.193640 -0.268840 -0.193140 
0.078290 16.518710 -4.378530 -6.977277 -21.321507 1.713096 -15.392313 15.367191 2.695851 10.242801 -3.491029 -14.303299 9.321842 4.926414 41.315130 0.716942 6.528533 2.299106 0.215480 -0.199200 0.417720 17.707022 -9.728192 4.055398 -7.437860 6.800449 -33.236069 10.491615 -12.435805 44.659355 -0.804817 -6.588704 2.169633 -0.404810 -0.133000 0.038600 -1.821078 -5.912960 -8.757875 3.582448 -8.494554 11.006831 19.308292 -0.808527 -27.712281 -0.115916 -7.506832 -16.114765 -26.348679 21.294031 53.442918 1.783800 14.922490 16.418720 8.658880 13.891411 6.813265 -57.400689 13.785285 -6.286126 10.082753 -5.755621 -0.108512 -3.512704 2.690408 0.572250 -0.201820 0.177890 0.075720 -3.776053 -9.227754 6.456723 60.612053 -9.467495 -10.601679 -81.894335 57.554498 -38.023483 1.957588 -0.525221 0.011080 -0.193150 -0.280900 -0.180980 
0.075860 16.522180 -4.316730 -6.705393 -19.603795 1.586401 -15.410750 15.449860 2.718131 9.851861 -3.574478 -14.513151 10.202887 4.292318 40.775478 0.696539 6.362732 2.347490 0.237560 -0.168100 0.409750 17.671046 -9.772630 3.960256 -8.118235 6.232136 -32.386044 11.020233 -12.729644 43.973252 -0.799835 -6.572302 2.178503 -0.389980 -0.144540 0.039330 -1.789112 -6.065210 -8.721149 4.275872 -8.474507 10.604894 19.229017 -0.648174 -27.495295 0.133129 -7.934907 -16.410410 -28.278454 21.912134 52.843025 1.661880 14.417810 16.108160 8.990574 14.028764 7.002098 -58.590927 13.841776 -6.349188 8.814524 -6.118439 -0.228813 -3.479372 2.709119 0.567120 -0.211500 0.181850 0.086330 -4.412495 -8.875580 6.680218 59.831921 -9.724631 -10.288649 -83.917976 56.440801 -38.858931 2.011723 -0.600898 0.027750 -0.199300 -0.288660 -0.171220 
